<svg width="21" height="20" viewBox="0 0 21 20" fill="none" xmlns="http://www.w3.org/2000/svg">
<path d="M10.5 0C4.70225 0 0 4.59069 0 10.2528C0 14.7828 3.00825 18.6259 7.18112 19.9819C7.70525 20.0767 7.875 19.7589 7.875 19.4889V17.5801C4.95425 18.2004 4.34613 16.3703 4.34613 16.3703C3.86838 15.1853 3.17975 14.87 3.17975 14.87C2.22688 14.2335 3.25238 14.2471 3.25238 14.2471C4.30675 14.3189 4.8615 15.304 4.8615 15.304C5.79775 16.871 7.31763 16.4182 7.917 16.1559C8.01062 15.4937 8.28275 15.0409 8.58375 14.7854C6.25188 14.5248 3.80012 13.6456 3.80012 9.71795C3.80012 8.59783 4.2105 7.68362 4.88163 6.96593C4.77313 6.70704 4.4135 5.66382 4.984 4.25235C4.984 4.25235 5.866 3.97723 7.87237 5.30326C8.70975 5.07599 9.6075 4.96236 10.5 4.95808C11.3925 4.96236 12.2911 5.07599 13.1302 5.30326C15.1349 3.97723 16.0151 4.25235 16.0151 4.25235C16.5865 5.66467 16.2269 6.7079 16.1184 6.96593C16.7921 7.68362 17.199 8.59868 17.199 9.71795C17.199 13.6559 14.7429 14.5231 12.4049 14.7769C12.7811 15.0947 13.125 15.7184 13.125 16.6753V19.4889C13.125 19.7614 13.293 20.0818 13.8259 19.981C17.9952 18.6234 21 14.7811 21 10.2528C21 4.59069 16.2986 0 10.5 0Z" fill="white"/>
</svg>
