<svg width="19" height="19" viewBox="0 0 19 19" fill="none" xmlns="http://www.w3.org/2000/svg">
<path d="M2.37496 3.95833C2.27006 3.95685 2.1659 3.97623 2.06855 4.01535C1.9712 4.05447 1.8826 4.11254 1.80789 4.1862C1.73318 4.25986 1.67386 4.34764 1.63337 4.44443C1.59287 4.54121 1.57202 4.64508 1.57202 4.75C1.57202 4.85491 1.59287 4.95878 1.63337 5.05557C1.67386 5.15236 1.73318 5.24013 1.80789 5.31379C1.8826 5.38745 1.9712 5.44553 2.06855 5.48465C2.1659 5.52377 2.27006 5.54315 2.37496 5.54166H16.625C16.7299 5.54315 16.834 5.52377 16.9314 5.48465C17.0287 5.44553 17.1173 5.38745 17.192 5.31379C17.2667 5.24013 17.3261 5.15236 17.3666 5.05557C17.4071 4.95878 17.4279 4.85491 17.4279 4.75C17.4279 4.64508 17.4071 4.54121 17.3666 4.44443C17.3261 4.34764 17.2667 4.25986 17.192 4.1862C17.1173 4.11254 17.0287 4.05447 16.9314 4.01535C16.834 3.97623 16.7299 3.95685 16.625 3.95833H2.37496ZM2.37496 8.70833C2.27006 8.70685 2.1659 8.72623 2.06855 8.76535C1.9712 8.80447 1.8826 8.86254 1.80789 8.9362C1.73318 9.00986 1.67386 9.09764 1.63337 9.19443C1.59287 9.29121 1.57202 9.39508 1.57202 9.5C1.57202 9.60491 1.59287 9.70878 1.63337 9.80557C1.67386 9.90236 1.73318 9.99013 1.80789 10.0638C1.8826 10.1375 1.9712 10.1955 2.06855 10.2346C2.1659 10.2738 2.27006 10.2931 2.37496 10.2917H16.625C16.7299 10.2931 16.834 10.2738 16.9314 10.2346C17.0287 10.1955 17.1173 10.1375 17.192 10.0638C17.2667 9.99013 17.3261 9.90236 17.3666 9.80557C17.4071 9.70878 17.4279 9.60491 17.4279 9.5C17.4279 9.39508 17.4071 9.29121 17.3666 9.19443C17.3261 9.09764 17.2667 9.00986 17.192 8.9362C17.1173 8.86254 17.0287 8.80447 16.9314 8.76535C16.834 8.72623 16.7299 8.70685 16.625 8.70833H2.37496ZM2.37496 13.4583C2.27006 13.4568 2.1659 13.4762 2.06855 13.5153C1.9712 13.5545 1.8826 13.6125 1.80789 13.6862C1.73318 13.7599 1.67386 13.8476 1.63337 13.9444C1.59287 14.0412 1.57202 14.1451 1.57202 14.25C1.57202 14.3549 1.59287 14.4588 1.63337 14.5556C1.67386 14.6524 1.73318 14.7401 1.80789 14.8138C1.8826 14.8875 1.9712 14.9455 2.06855 14.9846C2.1659 15.0238 2.27006 15.0431 2.37496 15.0417H16.625C16.7299 15.0431 16.834 15.0238 16.9314 14.9846C17.0287 14.9455 17.1173 14.8875 17.192 14.8138C17.2667 14.7401 17.3261 14.6524 17.3666 14.5556C17.4071 14.4588 17.4279 14.3549 17.4279 14.25C17.4279 14.1451 17.4071 14.0412 17.3666 13.9444C17.3261 13.8476 17.2667 13.7599 17.192 13.6862C17.1173 13.6125 17.0287 13.5545 16.9314 13.5153C16.834 13.4762 16.7299 13.4568 16.625 13.4583H2.37496Z" fill="white"/>
</svg>
